<svg xmlns="http://www.w3.org/2000/svg" viewBox="0 0 200 250" fill="#006747">
  <!-- US Map outline (simplified) -->
  <path d="M40,80 C35,75 30,68 28,60 C26,52 30,45 38,42 C42,40 48,38 55,38 C60,38 65,36 70,34 C75,32 80,32 85,33 C90,34 95,33 100,32 C105,31 110,32 115,34 C120,36 125,35 130,34 C135,33 140,34 145,37 C150,40 155,42 160,42 C165,42 168,44 170,48 C172,52 170,58 166,62 C162,66 160,72 158,78 C156,84 152,88 148,92 C147,93 147,95 148,96 L150,100 C151,102 150,104 148,105 C144,108 140,112 138,116 C136,120 132,122 128,124 C124,126 122,130 120,134 C118,138 114,140 110,140 C106,140 104,142 102,146 C100,150 96,152 92,152 C88,152 84,154 82,158 C80,162 76,164 72,164 C68,164 66,166 64,170 C62,172 58,174 54,174 C50,174 46,172 44,168 C42,164 38,160 34,158 C30,156 28,152 28,148 C28,144 26,140 22,138 C18,136 16,132 18,128 C20,124 22,120 26,118 C30,116 32,112 32,108 C32,104 34,100 38,98 C40,96 42,92 42,88 C42,84 40,82 40,80 Z"
    stroke="#006747" stroke-width="2.5" fill="none"/>
  <!-- Flag pole -->
  <line x1="132" y1="28" x2="132" y2="172" stroke="#006747" stroke-width="2.5"/>
  <!-- Flag -->
  <path d="M132,28 L158,37 L132,46 Z" fill="#006747"/>
  <!-- Flag hole circle -->
  <circle cx="132" cy="174" r="4" fill="none" stroke="#006747" stroke-width="2"/>
  <!-- Text -->
  <text x="85" y="72" text-anchor="middle" font-family="serif" font-size="28" font-weight="bold" font-style="italic" letter-spacing="-1" fill="#006747">Augusta</text>
  <text x="85" y="104" text-anchor="middle" font-family="serif" font-size="28" font-weight="bold" font-style="italic" letter-spacing="-1" fill="#006747">National</text>
  <text x="80" y="136" text-anchor="middle" font-family="serif" font-size="28" font-weight="bold" font-style="italic" letter-spacing="-1" fill="#006747">Golf</text>
  <text x="80" y="168" text-anchor="middle" font-family="serif" font-size="28" font-weight="bold" font-style="italic" letter-spacing="-1" fill="#006747">Club</text>
</svg>
